<mxfile host="65bd71144e">
    <diagram id="nr6l_9SvN5zxRYn-RW7f" name="第 1 页">
        <mxGraphModel dx="885" dy="345" grid="0" gridSize="5" guides="1" tooltips="1" connect="1" arrows="1" fold="1" page="1" pageScale="1" pageWidth="1169" pageHeight="1654" background="none" math="0" shadow="0">
            <root>
                <mxCell id="0"/>
                <mxCell id="1" parent="0"/>
                <mxCell id="2" value="" style="rounded=0;whiteSpace=wrap;html=1;" parent="1" vertex="1">
                    <mxGeometry x="446" y="24" width="234" height="160" as="geometry"/>
                </mxCell>
                <mxCell id="3" value="&lt;span style=&quot;color: rgba(0 , 0 , 0 , 0) ; font-family: monospace ; font-size: 0px&quot;&gt;%3CmxGraphModel%3E%3Croot%3E%3CmxCell%20id%3D%220%22%2F%3E%3CmxCell%20id%3D%221%22%20parent%3D%220%22%2F%3E%3CmxCell%20id%3D%222%22%20value%3D%22%E9%A6%96%E9%A1%B5%E5%A4%B4%E9%83%A8%22%20style%3D%22text%3Bhtml%3D1%3Balign%3Dcenter%3BverticalAlign%3Dmiddle%3BwhiteSpace%3Dwrap%3Brounded%3D0%3BfontColor%3D%23FF0000%3B%22%20vertex%3D%221%22%20parent%3D%221%22%3E%3CmxGeometry%20x%3D%22533%22%20y%3D%2236%22%20width%3D%2260%22%20height%3D%2230%22%20as%3D%22geometry%22%2F%3E%3C%2FmxCell%3E%3C%2Froot%3E%3C%2FmxGraphModel%3E&lt;/span&gt;" style="rounded=0;whiteSpace=wrap;html=1;" parent="1" vertex="1">
                    <mxGeometry x="447" y="199" width="233" height="175" as="geometry"/>
                </mxCell>
                <mxCell id="4" value="首页头部" style="text;html=1;align=center;verticalAlign=middle;whiteSpace=wrap;rounded=0;fontColor=#FF0000;" parent="1" vertex="1">
                    <mxGeometry x="533" y="36" width="60" height="30" as="geometry"/>
                </mxCell>
                <mxCell id="5" value="let title = '首页'&lt;br&gt;let head = '头部'&lt;br&gt;let headmsg = title+head" style="text;html=1;strokeColor=none;fillColor=none;align=center;verticalAlign=middle;whiteSpace=wrap;rounded=0;fontColor=#0000FF;" parent="1" vertex="1">
                    <mxGeometry x="493" y="76" width="140" height="75" as="geometry"/>
                </mxCell>
                <mxCell id="6" value="首页足部" style="text;html=1;align=center;verticalAlign=middle;whiteSpace=wrap;rounded=0;fontColor=#FF0000;" parent="1" vertex="1">
                    <mxGeometry x="533" y="222" width="60" height="30" as="geometry"/>
                </mxCell>
                <mxCell id="7" value="&lt;br&gt;let foot= '足部'&lt;br&gt;let footmsg = title+foot" style="text;html=1;strokeColor=none;fillColor=none;align=center;verticalAlign=middle;whiteSpace=wrap;rounded=0;fontColor=#0000FF;" parent="1" vertex="1">
                    <mxGeometry x="494.5" y="248" width="140" height="51" as="geometry"/>
                </mxCell>
                <mxCell id="8" value="小明负责头部功能" style="text;html=1;strokeColor=none;fillColor=none;align=center;verticalAlign=middle;whiteSpace=wrap;rounded=0;fontColor=#FF0080;" parent="1" vertex="1">
                    <mxGeometry x="191" y="89" width="139" height="30" as="geometry"/>
                </mxCell>
                <mxCell id="9" value="小华负责足部功能" style="text;html=1;strokeColor=none;fillColor=none;align=center;verticalAlign=middle;whiteSpace=wrap;rounded=0;fontColor=#FF0080;" parent="1" vertex="1">
                    <mxGeometry x="191" y="258.5" width="139" height="30" as="geometry"/>
                </mxCell>
            </root>
        </mxGraphModel>
    </diagram>
</mxfile>